<svg width="30" height="28" viewBox="0 0 30 28" fill="none" xmlns="http://www.w3.org/2000/svg">
<path d="M20.8121 0.000515695C19.6042 0.0129407 18.3653 0.248816 17.1532 0.732641L17.0982 0.755991L17.0432 0.784341C16.2748 1.17564 15.5745 1.66514 14.9519 2.24524C11.6013 -0.652684 6.26704 -0.863009 2.61764 2.42702L2.58094 2.46037L2.54759 2.49539C-0.653809 5.83929 -0.578834 10.9891 1.34017 15.0581L1.35684 15.0898L1.37352 15.1232C3.63362 19.3083 7.85392 22.8645 11.6999 25.7881L11.7099 25.7964L11.7182 25.8031C11.9656 25.9845 12.3911 26.3595 12.8822 26.7286C13.3734 27.0978 13.9282 27.5023 14.74 27.6575L14.9218 27.6925L15.1053 27.6775C15.9573 27.604 16.2916 27.2894 16.8513 26.9371C17.4111 26.5847 18.0308 26.1374 18.6675 25.648C19.9225 24.6831 21.2211 23.571 22.0762 22.7779C22.0872 22.7676 22.1054 22.7529 22.1163 22.7428C22.118 22.7413 22.1195 22.7393 22.1213 22.7378C23.9226 21.2008 25.7068 19.4288 27.2194 17.3445C27.2199 17.3439 27.2206 17.3435 27.221 17.3429C27.2239 17.3391 27.2265 17.3351 27.2294 17.3312C29.6283 14.1014 30.7919 9.74884 29.4041 5.46059L29.379 5.38387L29.3457 5.31214C27.7874 1.94329 24.4359 -0.0367093 20.8121 0.000515695ZM20.8555 2.63882C23.4664 2.57877 25.7548 3.97677 26.8909 6.36777C27.9406 9.71519 27.0332 13.1258 25.0781 15.7519L25.0731 15.7585L25.0681 15.7652C23.7061 17.6447 22.0566 19.2899 20.3469 20.745L20.3252 20.765L20.3035 20.785C19.5336 21.5017 18.2304 22.6181 17.0398 23.5334C16.4445 23.991 15.8738 24.4 15.4305 24.6791C15.2638 24.784 15.1053 24.8555 14.9752 24.9109C14.8385 24.8362 14.665 24.731 14.4849 24.5957C14.1224 24.3233 13.7364 23.9755 13.3159 23.6651C13.3093 23.6601 13.3024 23.6551 13.2959 23.6501C9.56352 20.8112 5.63212 17.3642 3.74164 13.8891C2.20687 10.6102 2.27384 6.68577 4.44207 4.37987C7.39022 1.75857 11.7701 2.32844 13.9546 5.01859L15.0186 6.32774L16.0475 4.99192C16.6396 4.22384 17.3461 3.63667 18.2039 3.19082C19.1029 2.83959 19.9962 2.65857 20.8555 2.63882Z" fill="black"/>
</svg>
